<svg width="1080" height="500" viewBox="0 0 1080 500" fill="none" xmlns="http://www.w3.org/2000/svg">
<path d="M229.784 266.717L306.399 308.202L306.434 18.1716L229.452 17.9395L229.784 266.717Z" fill="url(#paint0_linear_5_592)"/>
<path d="M306.286 285.937L382.904 329.617L382.918 24.1516L305.937 23.9194L306.286 285.937Z" fill="url(#paint1_linear_5_592)"/>
<path d="M382.781 299.687L459.401 344.655L459.402 30.1314L382.421 29.8993L382.781 299.687Z" fill="url(#paint2_linear_5_592)"/>
<path d="M459.279 316.063L535.901 362.756L535.887 36.1112L458.905 35.8791L459.279 316.063Z" fill="url(#paint3_linear_5_592)"/>
<path d="M153.286 249.776L229.898 289.443L229.95 12.1919L152.968 11.9598L153.286 249.776Z" fill="url(#paint4_linear_5_592)"/>
<path d="M76.793 237.484L153.404 276.103L153.466 6.21194L76.4842 5.97979L76.793 237.484Z" fill="url(#paint5_linear_5_592)"/>
<path d="M0.288043 215.956L76.896 251.997L76.9815 0.232315L-4.3747e-05 0.00015762L0.288043 215.956Z" fill="url(#paint6_linear_5_592)"/>
<path d="M760.179 384.247L836.798 428.697L836.805 117.817L759.823 117.585L760.179 384.247Z" fill="url(#paint7_linear_5_592)"/>
<path d="M836.675 398.827L913.296 444.703L913.289 123.797L836.307 123.565L836.675 398.827Z" fill="url(#paint8_linear_5_592)"/>
<path d="M913.173 415.25L989.796 462.857L989.773 129.777L912.792 129.545L913.173 415.25Z" fill="url(#paint9_linear_5_592)"/>
<path d="M989.67 431.485L1066.3 480.793L1066.26 135.757L989.276 135.524L989.67 431.485Z" fill="url(#paint10_linear_5_592)"/>
<path d="M1066.17 448.577L1142.8 499.728L1142.74 141.737L1065.76 141.505L1066.17 448.577Z" fill="url(#paint11_linear_5_592)"/>
<path d="M683.675 363.433L760.295 408.595L760.295 92.7109L683.314 92.4787L683.675 363.433Z" fill="url(#paint12_linear_5_592)"/>
<path d="M607.178 347.683L683.798 392.574L683.8 78.5933L606.819 78.3611L607.178 347.683Z" fill="url(#paint13_linear_5_592)"/>
<path d="M530.677 329.052L607.298 375.142L607.29 52.7368L530.308 52.5047L530.677 329.052Z" fill="url(#paint14_linear_5_592)"/>
<defs>
<linearGradient id="paint0_linear_5_592" x1="268.313" y1="295.146" x2="269.148" y2="18.0592" gradientUnits="userSpaceOnUse">
<stop stop-color="#7DDAFF"/>
<stop offset="0.192374" stop-color="#00ADF1"/>
<stop offset="0.700173" stop-color="#005C80"/>
<stop offset="1" stop-color="#1E1E1E"/>
</linearGradient>
<linearGradient id="paint1_linear_5_592" x1="344.817" y1="315.872" x2="345.697" y2="24.0393" gradientUnits="userSpaceOnUse">
<stop stop-color="#7DDAFF"/>
<stop offset="0.192374" stop-color="#00ADF1"/>
<stop offset="0.700173" stop-color="#005C80"/>
<stop offset="1" stop-color="#1E1E1E"/>
</linearGradient>
<linearGradient id="paint2_linear_5_592" x1="421.312" y1="330.506" x2="422.219" y2="30.0193" gradientUnits="userSpaceOnUse">
<stop stop-color="#7DDAFF"/>
<stop offset="0.192374" stop-color="#00ADF1"/>
<stop offset="0.700173" stop-color="#005C80"/>
<stop offset="1" stop-color="#1E1E1E"/>
</linearGradient>
<linearGradient id="paint3_linear_5_592" x1="497.812" y1="348.066" x2="498.753" y2="35.9993" gradientUnits="userSpaceOnUse">
<stop stop-color="#7DDAFF"/>
<stop offset="0.192374" stop-color="#00ADF1"/>
<stop offset="0.700173" stop-color="#005C80"/>
<stop offset="1" stop-color="#1E1E1E"/>
</linearGradient>
<linearGradient id="paint4_linear_5_592" x1="191.812" y1="276.957" x2="192.611" y2="12.0793" gradientUnits="userSpaceOnUse">
<stop stop-color="#7DDAFF"/>
<stop offset="0.192374" stop-color="#00ADF1"/>
<stop offset="0.700173" stop-color="#005C80"/>
<stop offset="1" stop-color="#1E1E1E"/>
</linearGradient>
<linearGradient id="paint5_linear_5_592" x1="115.319" y1="263.946" x2="116.096" y2="6.09926" gradientUnits="userSpaceOnUse">
<stop stop-color="#7DDAFF"/>
<stop offset="0.192374" stop-color="#00ADF1"/>
<stop offset="0.700173" stop-color="#005C80"/>
<stop offset="1" stop-color="#1E1E1E"/>
</linearGradient>
<linearGradient id="paint6_linear_5_592" x1="38.8115" y1="240.649" x2="39.5369" y2="0.119387" gradientUnits="userSpaceOnUse">
<stop stop-color="#7DDAFF"/>
<stop offset="0.192374" stop-color="#00ADF1"/>
<stop offset="0.700173" stop-color="#005C80"/>
<stop offset="1" stop-color="#1E1E1E"/>
</linearGradient>
<linearGradient id="paint7_linear_5_592" x1="798.71" y1="414.711" x2="799.606" y2="117.705" gradientUnits="userSpaceOnUse">
<stop stop-color="#7DDAFF"/>
<stop offset="0.192374" stop-color="#00ADF1"/>
<stop offset="0.700173" stop-color="#005C80"/>
<stop offset="1" stop-color="#1E1E1E"/>
</linearGradient>
<linearGradient id="paint8_linear_5_592" x1="875.207" y1="430.269" x2="876.132" y2="123.685" gradientUnits="userSpaceOnUse">
<stop stop-color="#7DDAFF"/>
<stop offset="0.192374" stop-color="#00ADF1"/>
<stop offset="0.700173" stop-color="#005C80"/>
<stop offset="1" stop-color="#1E1E1E"/>
</linearGradient>
<linearGradient id="paint9_linear_5_592" x1="951.707" y1="447.881" x2="952.666" y2="129.665" gradientUnits="userSpaceOnUse">
<stop stop-color="#7DDAFF"/>
<stop offset="0.192374" stop-color="#00ADF1"/>
<stop offset="0.700173" stop-color="#005C80"/>
<stop offset="1" stop-color="#1E1E1E"/>
</linearGradient>
<linearGradient id="paint10_linear_5_592" x1="1028.21" y1="465.283" x2="1029.2" y2="135.645" gradientUnits="userSpaceOnUse">
<stop stop-color="#7DDAFF"/>
<stop offset="0.192374" stop-color="#00ADF1"/>
<stop offset="0.700173" stop-color="#005C80"/>
<stop offset="1" stop-color="#1E1E1E"/>
</linearGradient>
<linearGradient id="paint11_linear_5_592" x1="1104.71" y1="483.64" x2="1105.74" y2="141.625" gradientUnits="userSpaceOnUse">
<stop stop-color="#7DDAFF"/>
<stop offset="0.192374" stop-color="#00ADF1"/>
<stop offset="0.700173" stop-color="#005C80"/>
<stop offset="1" stop-color="#1E1E1E"/>
</linearGradient>
<linearGradient id="paint12_linear_5_592" x1="722.207" y1="394.386" x2="723.117" y2="92.5988" gradientUnits="userSpaceOnUse">
<stop stop-color="#7DDAFF"/>
<stop offset="0.192374" stop-color="#00ADF1"/>
<stop offset="0.700173" stop-color="#005C80"/>
<stop offset="1" stop-color="#1E1E1E"/>
</linearGradient>
<linearGradient id="paint13_linear_5_592" x1="645.709" y1="378.449" x2="646.614" y2="78.4812" gradientUnits="userSpaceOnUse">
<stop stop-color="#7DDAFF"/>
<stop offset="0.192374" stop-color="#00ADF1"/>
<stop offset="0.700173" stop-color="#005C80"/>
<stop offset="1" stop-color="#1E1E1E"/>
</linearGradient>
<linearGradient id="paint14_linear_5_592" x1="569.21" y1="360.641" x2="570.139" y2="52.6248" gradientUnits="userSpaceOnUse">
<stop stop-color="#7DDAFF"/>
<stop offset="0.192374" stop-color="#00ADF1"/>
<stop offset="0.700173" stop-color="#005C80"/>
<stop offset="1" stop-color="#1E1E1E"/>
</linearGradient>
</defs>
</svg>
