<svg width="330" height="36" viewBox="0 0 330 36" fill="none" xmlns="http://www.w3.org/2000/svg">
<path d="M0.78 28V2.8H3.732L15.036 21.844H13.452L24.612 2.8H27.564L27.6 28H24.144L24.108 8.236H24.936L15 24.94H13.344L3.336 8.236H4.236V28H0.78ZM41.9048 28.216C39.8648 28.216 38.0648 27.796 36.5048 26.956C34.9688 26.116 33.7688 24.964 32.9048 23.5C32.0648 22.036 31.6448 20.356 31.6448 18.46C31.6448 16.564 32.0528 14.884 32.8688 13.42C33.7088 11.956 34.8488 10.816 36.2888 10C37.7528 9.16 39.3968 8.74 41.2208 8.74C43.0688 8.74 44.7008 9.148 46.1168 9.964C47.5328 10.78 48.6368 11.932 49.4288 13.42C50.2448 14.884 50.6528 16.6 50.6528 18.568C50.6528 18.712 50.6408 18.88 50.6168 19.072C50.6168 19.264 50.6048 19.444 50.5808 19.612H34.3448V17.128H48.7808L47.3768 17.992C47.4008 16.768 47.1488 15.676 46.6208 14.716C46.0928 13.756 45.3608 13.012 44.4248 12.484C43.5128 11.932 42.4448 11.656 41.2208 11.656C40.0208 11.656 38.9528 11.932 38.0168 12.484C37.0808 13.012 36.3488 13.768 35.8208 14.752C35.2928 15.712 35.0288 16.816 35.0288 18.064V18.64C35.0288 19.912 35.3168 21.052 35.8928 22.06C36.4928 23.044 37.3208 23.812 38.3768 24.364C39.4328 24.916 40.6448 25.192 42.0128 25.192C43.1408 25.192 44.1608 25 45.0728 24.616C46.0088 24.232 46.8248 23.656 47.5208 22.888L49.4288 25.12C48.5648 26.128 47.4848 26.896 46.1888 27.424C44.9168 27.952 43.4888 28.216 41.9048 28.216ZM59.6738 28.216C58.0898 28.216 56.5778 28 55.1378 27.568C53.7218 27.136 52.6058 26.608 51.7898 25.984L53.2298 23.248C54.0458 23.8 55.0538 24.268 56.2538 24.652C57.4538 25.036 58.6778 25.228 59.9258 25.228C61.5338 25.228 62.6858 25 63.3818 24.544C64.1018 24.088 64.4618 23.452 64.4618 22.636C64.4618 22.036 64.2458 21.568 63.8138 21.232C63.3818 20.896 62.8058 20.644 62.0858 20.476C61.3898 20.308 60.6098 20.164 59.7458 20.044C58.8818 19.9 58.0178 19.732 57.1538 19.54C56.2898 19.324 55.4978 19.036 54.7778 18.676C54.0578 18.292 53.4818 17.776 53.0498 17.128C52.6178 16.456 52.4018 15.568 52.4018 14.464C52.4018 13.312 52.7258 12.304 53.3738 11.44C54.0218 10.576 54.9338 9.916 56.1098 9.46C57.3098 8.98 58.7258 8.74 60.3578 8.74C61.6058 8.74 62.8658 8.896 64.1378 9.208C65.4338 9.496 66.4898 9.916 67.3058 10.468L65.8298 13.204C64.9658 12.628 64.0658 12.232 63.1298 12.016C62.1938 11.8 61.2578 11.692 60.3218 11.692C58.8098 11.692 57.6818 11.944 56.9378 12.448C56.1938 12.928 55.8218 13.552 55.8218 14.32C55.8218 14.968 56.0378 15.472 56.4698 15.832C56.9258 16.168 57.5018 16.432 58.1978 16.624C58.9178 16.816 59.7098 16.984 60.5738 17.128C61.4378 17.248 62.3018 17.416 63.1658 17.632C64.0298 17.824 64.8098 18.1 65.5058 18.46C66.2258 18.82 66.8018 19.324 67.2338 19.972C67.6898 20.62 67.9178 21.484 67.9178 22.564C67.9178 23.716 67.5818 24.712 66.9098 25.552C66.2378 26.392 65.2898 27.052 64.0658 27.532C62.8418 27.988 61.3778 28.216 59.6738 28.216ZM76.4589 28.216C74.8749 28.216 73.3629 28 71.9229 27.568C70.5069 27.136 69.3909 26.608 68.5749 25.984L70.0149 23.248C70.8309 23.8 71.8389 24.268 73.0389 24.652C74.2389 25.036 75.4629 25.228 76.7109 25.228C78.3189 25.228 79.4709 25 80.1669 24.544C80.8869 24.088 81.2469 23.452 81.2469 22.636C81.2469 22.036 81.0309 21.568 80.5989 21.232C80.1669 20.896 79.5909 20.644 78.8709 20.476C78.1749 20.308 77.3949 20.164 76.5309 20.044C75.6669 19.9 74.8029 19.732 73.9389 19.54C73.0749 19.324 72.2829 19.036 71.5629 18.676C70.8429 18.292 70.2669 17.776 69.8349 17.128C69.4029 16.456 69.1869 15.568 69.1869 14.464C69.1869 13.312 69.5109 12.304 70.1589 11.44C70.8069 10.576 71.7189 9.916 72.8949 9.46C74.0949 8.98 75.5109 8.74 77.1429 8.74C78.3909 8.74 79.6509 8.896 80.9229 9.208C82.2189 9.496 83.2749 9.916 84.0909 10.468L82.6149 13.204C81.7509 12.628 80.8509 12.232 79.9149 12.016C78.9789 11.8 78.0429 11.692 77.1069 11.692C75.5949 11.692 74.4669 11.944 73.7229 12.448C72.9789 12.928 72.6069 13.552 72.6069 14.32C72.6069 14.968 72.8229 15.472 73.2549 15.832C73.7109 16.168 74.2869 16.432 74.9829 16.624C75.7029 16.816 76.4949 16.984 77.3589 17.128C78.2229 17.248 79.0869 17.416 79.9509 17.632C80.8149 17.824 81.5949 18.1 82.2909 18.46C83.0109 18.82 83.5869 19.324 84.0189 19.972C84.4749 20.62 84.7029 21.484 84.7029 22.564C84.7029 23.716 84.3669 24.712 83.6949 25.552C83.0229 26.392 82.0749 27.052 80.8509 27.532C79.6269 27.988 78.1629 28.216 76.4589 28.216ZM99.6161 28V23.968L99.4361 23.212V16.336C99.4361 14.872 99.0041 13.744 98.1401 12.952C97.3001 12.136 96.0281 11.728 94.3241 11.728C93.1961 11.728 92.0921 11.92 91.0121 12.304C89.9321 12.664 89.0201 13.156 88.2761 13.78L86.8361 11.188C87.8201 10.396 88.9961 9.796 90.3641 9.388C91.7561 8.956 93.2081 8.74 94.7201 8.74C97.3361 8.74 99.3521 9.376 100.768 10.648C102.184 11.92 102.892 13.864 102.892 16.48V28H99.6161ZM93.3521 28.216C91.9361 28.216 90.6881 27.976 89.6081 27.496C88.5521 27.016 87.7361 26.356 87.1601 25.516C86.5841 24.652 86.2961 23.68 86.2961 22.6C86.2961 21.568 86.5361 20.632 87.0161 19.792C87.5201 18.952 88.3241 18.28 89.4281 17.776C90.5561 17.272 92.0681 17.02 93.9641 17.02H100.012V19.504H94.1081C92.3801 19.504 91.2161 19.792 90.6161 20.368C90.0161 20.944 89.7161 21.64 89.7161 22.456C89.7161 23.392 90.0881 24.148 90.8321 24.724C91.5761 25.276 92.6081 25.552 93.9281 25.552C95.2241 25.552 96.3521 25.264 97.3121 24.688C98.2961 24.112 99.0041 23.272 99.4361 22.168L100.12 24.544C99.6641 25.672 98.8601 26.572 97.7081 27.244C96.5561 27.892 95.1041 28.216 93.3521 28.216ZM116.39 35.2C114.638 35.2 112.934 34.948 111.278 34.444C109.646 33.964 108.314 33.268 107.282 32.356L108.938 29.692C109.826 30.46 110.918 31.06 112.214 31.492C113.51 31.948 114.866 32.176 116.282 32.176C118.538 32.176 120.194 31.648 121.25 30.592C122.306 29.536 122.834 27.928 122.834 25.768V21.736L123.194 17.956L123.014 14.14V8.92H126.29V25.408C126.29 28.768 125.45 31.24 123.77 32.824C122.09 34.408 119.63 35.2 116.39 35.2ZM115.958 27.208C114.11 27.208 112.454 26.824 110.99 26.056C109.55 25.264 108.398 24.172 107.534 22.78C106.694 21.388 106.274 19.78 106.274 17.956C106.274 16.108 106.694 14.5 107.534 13.132C108.398 11.74 109.55 10.66 110.99 9.892C112.454 9.124 114.11 8.74 115.958 8.74C117.59 8.74 119.078 9.076 120.422 9.748C121.766 10.396 122.834 11.404 123.626 12.772C124.442 14.14 124.85 15.868 124.85 17.956C124.85 20.02 124.442 21.736 123.626 23.104C122.834 24.472 121.766 25.504 120.422 26.2C119.078 26.872 117.59 27.208 115.958 27.208ZM116.354 24.184C117.626 24.184 118.754 23.92 119.738 23.392C120.722 22.864 121.49 22.132 122.042 21.196C122.618 20.26 122.906 19.18 122.906 17.956C122.906 16.732 122.618 15.652 122.042 14.716C121.49 13.78 120.722 13.06 119.738 12.556C118.754 12.028 117.626 11.764 116.354 11.764C115.082 11.764 113.942 12.028 112.934 12.556C111.95 13.06 111.17 13.78 110.594 14.716C110.042 15.652 109.766 16.732 109.766 17.956C109.766 19.18 110.042 20.26 110.594 21.196C111.17 22.132 111.95 22.864 112.934 23.392C113.942 23.92 115.082 24.184 116.354 24.184ZM140.139 28.216C138.099 28.216 136.299 27.796 134.739 26.956C133.203 26.116 132.003 24.964 131.139 23.5C130.299 22.036 129.879 20.356 129.879 18.46C129.879 16.564 130.287 14.884 131.103 13.42C131.943 11.956 133.083 10.816 134.523 10C135.987 9.16 137.631 8.74 139.455 8.74C141.303 8.74 142.935 9.148 144.351 9.964C145.767 10.78 146.871 11.932 147.663 13.42C148.479 14.884 148.887 16.6 148.887 18.568C148.887 18.712 148.875 18.88 148.851 19.072C148.851 19.264 148.839 19.444 148.815 19.612H132.579V17.128H147.015L145.611 17.992C145.635 16.768 145.383 15.676 144.855 14.716C144.327 13.756 143.595 13.012 142.659 12.484C141.747 11.932 140.679 11.656 139.455 11.656C138.255 11.656 137.187 11.932 136.251 12.484C135.315 13.012 134.583 13.768 134.055 14.752C133.527 15.712 133.263 16.816 133.263 18.064V18.64C133.263 19.912 133.551 21.052 134.127 22.06C134.727 23.044 135.555 23.812 136.611 24.364C137.667 24.916 138.879 25.192 140.247 25.192C141.375 25.192 142.395 25 143.307 24.616C144.243 24.232 145.059 23.656 145.755 22.888L147.663 25.12C146.799 26.128 145.719 26.896 144.423 27.424C143.151 27.952 141.723 28.216 140.139 28.216ZM157.908 28.216C156.324 28.216 154.812 28 153.372 27.568C151.956 27.136 150.84 26.608 150.024 25.984L151.464 23.248C152.28 23.8 153.288 24.268 154.488 24.652C155.688 25.036 156.912 25.228 158.16 25.228C159.768 25.228 160.92 25 161.616 24.544C162.336 24.088 162.696 23.452 162.696 22.636C162.696 22.036 162.48 21.568 162.048 21.232C161.616 20.896 161.04 20.644 160.32 20.476C159.624 20.308 158.844 20.164 157.98 20.044C157.116 19.9 156.252 19.732 155.388 19.54C154.524 19.324 153.732 19.036 153.012 18.676C152.292 18.292 151.716 17.776 151.284 17.128C150.852 16.456 150.636 15.568 150.636 14.464C150.636 13.312 150.96 12.304 151.608 11.44C152.256 10.576 153.168 9.916 154.344 9.46C155.544 8.98 156.96 8.74 158.592 8.74C159.84 8.74 161.1 8.896 162.372 9.208C163.668 9.496 164.724 9.916 165.54 10.468L164.064 13.204C163.2 12.628 162.3 12.232 161.364 12.016C160.428 11.8 159.492 11.692 158.556 11.692C157.044 11.692 155.916 11.944 155.172 12.448C154.428 12.928 154.056 13.552 154.056 14.32C154.056 14.968 154.272 15.472 154.704 15.832C155.16 16.168 155.736 16.432 156.432 16.624C157.152 16.816 157.944 16.984 158.808 17.128C159.672 17.248 160.536 17.416 161.4 17.632C162.264 17.824 163.044 18.1 163.74 18.46C164.46 18.82 165.036 19.324 165.468 19.972C165.924 20.62 166.152 21.484 166.152 22.564C166.152 23.716 165.816 24.712 165.144 25.552C164.472 26.392 163.524 27.052 162.3 27.532C161.076 27.988 159.612 28.216 157.908 28.216ZM178.143 28V2.8H187.971C190.179 2.8 192.063 3.148 193.623 3.844C195.183 4.54 196.383 5.548 197.223 6.868C198.063 8.188 198.483 9.76 198.483 11.584C198.483 13.408 198.063 14.98 197.223 16.3C196.383 17.596 195.183 18.592 193.623 19.288C192.063 19.984 190.179 20.332 187.971 20.332H180.123L181.743 18.676V28H178.143ZM194.991 28L188.583 18.856H192.435L198.915 28H194.991ZM181.743 19.036L180.123 17.272H187.863C190.167 17.272 191.907 16.78 193.083 15.796C194.283 14.788 194.883 13.384 194.883 11.584C194.883 9.784 194.283 8.392 193.083 7.408C191.907 6.424 190.167 5.932 187.863 5.932H180.123L181.743 4.132V19.036ZM211.042 28.216C209.002 28.216 207.202 27.796 205.642 26.956C204.106 26.116 202.906 24.964 202.042 23.5C201.202 22.036 200.782 20.356 200.782 18.46C200.782 16.564 201.19 14.884 202.006 13.42C202.846 11.956 203.986 10.816 205.426 10C206.89 9.16 208.534 8.74 210.358 8.74C212.206 8.74 213.838 9.148 215.254 9.964C216.67 10.78 217.774 11.932 218.566 13.42C219.382 14.884 219.79 16.6 219.79 18.568C219.79 18.712 219.778 18.88 219.754 19.072C219.754 19.264 219.742 19.444 219.718 19.612H203.482V17.128H217.918L216.514 17.992C216.538 16.768 216.286 15.676 215.758 14.716C215.23 13.756 214.498 13.012 213.562 12.484C212.65 11.932 211.582 11.656 210.358 11.656C209.158 11.656 208.09 11.932 207.154 12.484C206.218 13.012 205.486 13.768 204.958 14.752C204.43 15.712 204.166 16.816 204.166 18.064V18.64C204.166 19.912 204.454 21.052 205.03 22.06C205.63 23.044 206.458 23.812 207.514 24.364C208.57 24.916 209.782 25.192 211.15 25.192C212.278 25.192 213.298 25 214.21 24.616C215.146 24.232 215.962 23.656 216.658 22.888L218.566 25.12C217.702 26.128 216.622 26.896 215.326 27.424C214.054 27.952 212.626 28.216 211.042 28.216ZM231.655 28.216C229.711 28.216 227.971 27.796 226.435 26.956C224.923 26.116 223.735 24.964 222.871 23.5C222.007 22.036 221.575 20.356 221.575 18.46C221.575 16.564 222.007 14.884 222.871 13.42C223.735 11.956 224.923 10.816 226.435 10C227.971 9.16 229.711 8.74 231.655 8.74C233.383 8.74 234.919 9.088 236.263 9.784C237.631 10.456 238.687 11.464 239.431 12.808L236.803 14.5C236.179 13.564 235.411 12.88 234.499 12.448C233.611 11.992 232.651 11.764 231.619 11.764C230.371 11.764 229.255 12.04 228.271 12.592C227.287 13.144 226.507 13.924 225.931 14.932C225.355 15.916 225.067 17.092 225.067 18.46C225.067 19.828 225.355 21.016 225.931 22.024C226.507 23.032 227.287 23.812 228.271 24.364C229.255 24.916 230.371 25.192 231.619 25.192C232.651 25.192 233.611 24.976 234.499 24.544C235.411 24.088 236.179 23.392 236.803 22.456L239.431 24.112C238.687 25.432 237.631 26.452 236.263 27.172C234.919 27.868 233.383 28.216 231.655 28.216ZM250.87 28.216C248.83 28.216 247.03 27.796 245.47 26.956C243.934 26.116 242.734 24.964 241.87 23.5C241.03 22.036 240.61 20.356 240.61 18.46C240.61 16.564 241.018 14.884 241.834 13.42C242.674 11.956 243.814 10.816 245.254 10C246.718 9.16 248.362 8.74 250.186 8.74C252.034 8.74 253.666 9.148 255.082 9.964C256.498 10.78 257.602 11.932 258.394 13.42C259.21 14.884 259.618 16.6 259.618 18.568C259.618 18.712 259.606 18.88 259.582 19.072C259.582 19.264 259.57 19.444 259.546 19.612H243.31V17.128H257.746L256.342 17.992C256.366 16.768 256.114 15.676 255.586 14.716C255.058 13.756 254.326 13.012 253.39 12.484C252.478 11.932 251.41 11.656 250.186 11.656C248.986 11.656 247.918 11.932 246.982 12.484C246.046 13.012 245.314 13.768 244.786 14.752C244.258 15.712 243.994 16.816 243.994 18.064V18.64C243.994 19.912 244.282 21.052 244.858 22.06C245.458 23.044 246.286 23.812 247.342 24.364C248.398 24.916 249.61 25.192 250.978 25.192C252.106 25.192 253.126 25 254.038 24.616C254.974 24.232 255.79 23.656 256.486 22.888L258.394 25.12C257.53 26.128 256.45 26.896 255.154 27.424C253.882 27.952 252.454 28.216 250.87 28.216ZM263.167 28V8.92H266.623V28H263.167ZM264.895 5.248C264.223 5.248 263.659 5.032 263.203 4.6C262.771 4.168 262.555 3.64 262.555 3.016C262.555 2.368 262.771 1.828 263.203 1.396C263.659 0.963999 264.223 0.747999 264.895 0.747999C265.567 0.747999 266.119 0.963999 266.551 1.396C267.007 1.804 267.235 2.32 267.235 2.944C267.235 3.592 267.019 4.144 266.587 4.6C266.155 5.032 265.591 5.248 264.895 5.248ZM276.975 28L268.623 8.92H272.223L279.639 26.2H277.911L285.471 8.92H288.855L280.503 28H276.975ZM298.799 28.216C296.759 28.216 294.959 27.796 293.399 26.956C291.863 26.116 290.663 24.964 289.799 23.5C288.959 22.036 288.539 20.356 288.539 18.46C288.539 16.564 288.947 14.884 289.763 13.42C290.603 11.956 291.743 10.816 293.183 10C294.647 9.16 296.291 8.74 298.115 8.74C299.963 8.74 301.595 9.148 303.011 9.964C304.427 10.78 305.531 11.932 306.323 13.42C307.139 14.884 307.547 16.6 307.547 18.568C307.547 18.712 307.535 18.88 307.511 19.072C307.511 19.264 307.499 19.444 307.475 19.612H291.239V17.128H305.675L304.271 17.992C304.295 16.768 304.043 15.676 303.515 14.716C302.987 13.756 302.255 13.012 301.319 12.484C300.407 11.932 299.339 11.656 298.115 11.656C296.915 11.656 295.847 11.932 294.911 12.484C293.975 13.012 293.243 13.768 292.715 14.752C292.187 15.712 291.923 16.816 291.923 18.064V18.64C291.923 19.912 292.211 21.052 292.787 22.06C293.387 23.044 294.215 23.812 295.271 24.364C296.327 24.916 297.539 25.192 298.907 25.192C300.035 25.192 301.055 25 301.967 24.616C302.903 24.232 303.719 23.656 304.415 22.888L306.323 25.12C305.459 26.128 304.379 26.896 303.083 27.424C301.811 27.952 300.383 28.216 298.799 28.216ZM318.98 28.216C317.132 28.216 315.476 27.808 314.012 26.992C312.572 26.176 311.432 25.036 310.592 23.572C309.752 22.108 309.332 20.404 309.332 18.46C309.332 16.516 309.752 14.824 310.592 13.384C311.432 11.92 312.572 10.78 314.012 9.964C315.476 9.148 317.132 8.74 318.98 8.74C320.588 8.74 322.04 9.1 323.336 9.82C324.632 10.54 325.664 11.62 326.432 13.06C327.224 14.5 327.62 16.3 327.62 18.46C327.62 20.62 327.236 22.42 326.468 23.86C325.724 25.3 324.704 26.392 323.408 27.136C322.112 27.856 320.636 28.216 318.98 28.216ZM319.268 25.192C320.468 25.192 321.548 24.916 322.508 24.364C323.492 23.812 324.26 23.032 324.812 22.024C325.388 20.992 325.676 19.804 325.676 18.46C325.676 17.092 325.388 15.916 324.812 14.932C324.26 13.924 323.492 13.144 322.508 12.592C321.548 12.04 320.468 11.764 319.268 11.764C318.044 11.764 316.952 12.04 315.992 12.592C315.032 13.144 314.264 13.924 313.688 14.932C313.112 15.916 312.824 17.092 312.824 18.46C312.824 19.804 313.112 20.992 313.688 22.024C314.264 23.032 315.032 23.812 315.992 24.364C316.952 24.916 318.044 25.192 319.268 25.192ZM325.784 28V22.852L326 18.424L325.64 13.996V1.288H329.096V28H325.784Z" fill="black"/>
</svg>
