<svg width="279" height="91" viewBox="0 0 279 91" fill="none" xmlns="http://www.w3.org/2000/svg">
<path d="M28.256 90.624C21.536 90.624 16.48 88.992 13.088 85.728C9.696 82.464 8 77.856 8 71.904V57.024C8 55.552 7.616 54.464 6.848 53.76C6.08 53.056 5.088 52.704 3.872 52.704H0.608V38.688H3.872C5.088 38.688 6.08 38.336 6.848 37.632C7.616 36.864 8 35.776 8 34.368V19.488C8 13.536 9.696 8.928 13.088 5.664C16.48 2.4 21.536 0.767996 28.256 0.767996H34.496V14.688H33.152C30.912 14.688 29.184 15.296 27.968 16.512C26.816 17.664 26.24 19.36 26.24 21.6V33.888C26.24 37.088 25.792 39.584 24.896 41.376C24 43.104 22.592 44.352 20.672 45.12C18.816 45.888 16.384 46.4 13.376 46.656V44.736C16.384 44.992 18.816 45.504 20.672 46.272C22.592 47.04 24 48.32 24.896 50.112C25.792 51.84 26.24 54.304 26.24 57.504V69.792C26.24 72.032 26.816 73.728 27.968 74.88C29.184 76.096 30.912 76.704 33.152 76.704H34.496V90.624H28.256ZM65.126 90.624C58.406 90.624 53.35 88.992 49.958 85.728C46.566 82.464 44.87 77.856 44.87 71.904V57.024C44.87 55.552 44.486 54.464 43.718 53.76C42.95 53.056 41.958 52.704 40.742 52.704H37.478V38.688H40.742C41.958 38.688 42.95 38.336 43.718 37.632C44.486 36.864 44.87 35.776 44.87 34.368V19.488C44.87 13.536 46.566 8.928 49.958 5.664C53.35 2.4 58.406 0.767996 65.126 0.767996H71.366V14.688H70.022C67.782 14.688 66.054 15.296 64.838 16.512C63.686 17.664 63.11 19.36 63.11 21.6V33.888C63.11 37.088 62.662 39.584 61.766 41.376C60.87 43.104 59.462 44.352 57.542 45.12C55.686 45.888 53.254 46.4 50.246 46.656V44.736C53.254 44.992 55.686 45.504 57.542 46.272C59.462 47.04 60.87 48.32 61.766 50.112C62.662 51.84 63.11 54.304 63.11 57.504V69.792C63.11 72.032 63.686 73.728 64.838 74.88C66.054 76.096 67.782 76.704 70.022 76.704H71.366V90.624H65.126ZM143.372 19.104C147.404 19.104 150.988 19.936 154.124 21.6C157.324 23.2 159.82 25.696 161.612 29.088C163.468 32.48 164.396 36.864 164.396 42.24V72H146.156V45.216C146.156 41.504 145.452 38.816 144.044 37.152C142.636 35.424 140.716 34.56 138.284 34.56C136.556 34.56 134.988 34.976 133.58 35.808C132.172 36.64 131.084 37.92 130.316 39.648C129.548 41.312 129.164 43.488 129.164 46.176V72H110.924V45.216C110.924 41.504 110.22 38.816 108.812 37.152C107.468 35.424 105.548 34.56 103.052 34.56C101.26 34.56 99.66 34.976 98.252 35.808C96.908 36.64 95.82 37.92 94.988 39.648C94.22 41.312 93.836 43.488 93.836 46.176V72H75.596V19.968H92.972V34.464L89.516 30.336C91.436 26.624 94.06 23.84 97.388 21.984C100.716 20.064 104.428 19.104 108.524 19.104C113.196 19.104 117.292 20.32 120.812 22.752C124.396 25.12 126.796 28.832 128.012 33.888L122.06 32.64C123.916 28.416 126.7 25.12 130.412 22.752C134.188 20.32 138.508 19.104 143.372 19.104ZM173.029 72V19.968H190.405V35.136L187.813 30.816C189.349 26.912 191.845 24 195.301 22.08C198.757 20.096 202.949 19.104 207.877 19.104V35.52C207.045 35.392 206.309 35.328 205.669 35.328C205.093 35.264 204.453 35.232 203.749 35.232C200.037 35.232 197.029 36.256 194.725 38.304C192.421 40.288 191.269 43.552 191.269 48.096V72H173.029ZM214.062 90.624H207.726V76.704H209.166C211.406 76.704 213.102 76.096 214.254 74.88C215.47 73.728 216.078 72.032 216.078 69.792V57.504C216.078 54.304 216.526 51.84 217.422 50.112C218.318 48.32 219.694 47.04 221.55 46.272C223.47 45.504 225.934 44.992 228.942 44.736V46.656C225.934 46.4 223.47 45.888 221.55 45.12C219.694 44.352 218.318 43.104 217.422 41.376C216.526 39.584 216.078 37.088 216.078 33.888V21.6C216.078 19.36 215.47 17.664 214.254 16.512C213.102 15.296 211.406 14.688 209.166 14.688H207.726V0.767996H214.062C220.782 0.767996 225.838 2.4 229.23 5.664C232.622 8.928 234.318 13.536 234.318 19.488V34.368C234.318 35.776 234.702 36.864 235.47 37.632C236.238 38.336 237.23 38.688 238.446 38.688H241.614V52.704H238.446C237.23 52.704 236.238 53.056 235.47 53.76C234.702 54.464 234.318 55.552 234.318 57.024V71.904C234.318 77.856 232.622 82.464 229.23 85.728C225.838 88.992 220.782 90.624 214.062 90.624ZM250.932 90.624H244.596V76.704H246.036C248.276 76.704 249.972 76.096 251.124 74.88C252.34 73.728 252.948 72.032 252.948 69.792V57.504C252.948 54.304 253.396 51.84 254.292 50.112C255.188 48.32 256.564 47.04 258.42 46.272C260.34 45.504 262.804 44.992 265.812 44.736V46.656C262.804 46.4 260.34 45.888 258.42 45.12C256.564 44.352 255.188 43.104 254.292 41.376C253.396 39.584 252.948 37.088 252.948 33.888V21.6C252.948 19.36 252.34 17.664 251.124 16.512C249.972 15.296 248.276 14.688 246.036 14.688H244.596V0.767996H250.932C257.652 0.767996 262.708 2.4 266.1 5.664C269.492 8.928 271.188 13.536 271.188 19.488V34.368C271.188 35.776 271.572 36.864 272.34 37.632C273.108 38.336 274.1 38.688 275.316 38.688H278.484V52.704H275.316C274.1 52.704 273.108 53.056 272.34 53.76C271.572 54.464 271.188 55.552 271.188 57.024V71.904C271.188 77.856 269.492 82.464 266.1 85.728C262.708 88.992 257.652 90.624 250.932 90.624Z" fill="black"/>
</svg>
